# xmcd
#
# Track frame offsets: 
#        150
#        23316
#        39209
#        58324
#        76007
#        91501
#        110415
#        130894
#        152034
#        170590
#        186426
#
# Disc length: 2796 seconds
#
# Revision: 8
# Processed by: cddbd v1.5.2PL0 Copyright (c) Steve Scherf et al.
# Submitted via: ExactAudioCopy v1.2
#
DISCID=7a0aea0b
DTITLE=Kenny Chesney - The Road And The Radio
DYEAR=2005
DGENRE=Country
TTITLE0=The Road And The Radio
TTITLE1=Living In Fast Forward
TTITLE2=Who You'd Be Today
TTITLE3=You Save Me
TTITLE4=Summertime
TTITLE5=In A Small Town
TTITLE6=Beer In Mexico
TTITLE7=Freedom
TTITLE8=Tequila Loves Me
TTITLE9=Somebody Take Me Home
TTITLE10=Like Me
EXTD=YEAR: 2005
EXTT0=
EXTT1=
EXTT2=
EXTT3=
EXTT4=
EXTT5=
EXTT6=
EXTT7=
EXTT8=
EXTT9=
EXTT10=
PLAYORDER=
